<svg width="73" height="30" viewBox="0 0 73 30" fill="none" xmlns="http://www.w3.org/2000/svg">
<path d="M0.72 16.904V13.576L14.48 5.864V9.256L3.888 15.112V15.368L14.48 21.192V24.616L0.72 16.904ZM25.9555 14.728L23.2675 18.088V25H19.6835V2.664H23.2675V13.352H23.4275L26.1475 9.64L31.6195 2.664H35.7475L28.3875 12.072L36.0355 25H31.9395L25.9555 14.728ZM39.031 29.416L49.815 0.679998H52.919L42.135 29.416H39.031ZM58.2825 21.224L68.8745 15.368V15.112L58.2825 9.288V5.864L72.0425 13.576V16.904L58.2825 24.616V21.224Z" fill="#12F7D6"/>
</svg>
